<svg width="26" height="29" viewBox="0 0 26 29" fill="none" xmlns="http://www.w3.org/2000/svg">
<path d="M24.9236 20.9472C24.0485 15.6821 21.3242 11.7615 18.9559 9.45865C18.2668 8.78854 17.9222 8.45349 17.161 8.1434C16.3999 7.83331 15.7456 7.83331 14.437 7.83331H11.563C10.2544 7.83331 9.60013 7.83331 8.83896 8.1434C8.07779 8.45349 7.73321 8.78854 7.04405 9.45865C4.67576 11.7615 1.95147 15.6821 1.07636 20.9472C0.42524 24.8645 4.03903 27.8333 8.07776 27.8333H17.9222C21.961 27.8333 25.5748 24.8645 24.9236 20.9472Z" stroke="#F3C50D" stroke-width="1.5" stroke-linecap="round"/>
<path d="M6.67614 4.42381C6.40107 4.02343 6.00235 3.47998 6.82598 3.35605C7.67254 3.22867 8.5516 3.80818 9.41205 3.79627C10.1905 3.78549 10.5871 3.44025 11.0125 2.9473C11.4606 2.42822 12.1543 1.16666 13.0007 1.16666C13.847 1.16666 14.5407 2.42822 14.9888 2.9473C15.4142 3.44025 15.8108 3.78549 16.5893 3.79627C17.4497 3.80818 18.3288 3.22867 19.1753 3.35605C19.999 3.47998 19.6002 4.02343 19.3252 4.42381L18.0814 6.23418C17.5493 7.0086 17.2833 7.39582 16.7266 7.61457C16.1699 7.83332 15.4504 7.83332 14.0116 7.83332H11.9897C10.5509 7.83332 9.83144 7.83332 9.27473 7.61457C8.71801 7.39582 8.45198 7.0086 7.91992 6.23418L6.67614 4.42381Z" stroke="#F3C50D" stroke-width="1.5"/>
</svg>
