<svg width="32" height="33" viewBox="0 0 32 33" fill="none" xmlns="http://www.w3.org/2000/svg">
<path d="M21.3359 19.1666C21.3359 20.2712 22.2314 21.1666 23.3359 21.1666C24.4405 21.1666 25.3359 20.2712 25.3359 19.1666C25.3359 18.0621 24.4405 17.1666 23.3359 17.1666C22.2314 17.1666 21.3359 18.0621 21.3359 19.1666Z" stroke="#F3C50D" stroke-width="1.5"/>
<path d="M25.2026 11.1666C25.29 10.7358 25.3359 10.2899 25.3359 9.83329C25.3359 6.15139 22.3512 3.16663 18.6693 3.16663C14.9874 3.16663 12.0026 6.15139 12.0026 9.83329C12.0026 10.2899 12.0485 10.7358 12.136 11.1666" stroke="#F3C50D" stroke-width="1.5"/>
<path d="M9.33464 11.1576H21.3346C25.1059 11.1576 26.9915 11.1576 28.1631 12.3297C29.3346 13.5019 29.3346 15.3884 29.3346 19.1615V21.8294C29.3346 25.6025 29.3346 27.489 28.1631 28.6611C26.9915 29.8333 25.1059 29.8333 21.3346 29.8333H13.3346C8.30632 29.8333 5.79216 29.8333 4.23007 28.2704C2.66797 26.7076 2.66797 24.1922 2.66797 19.1615V16.4935C2.66797 11.4628 2.66797 8.94739 4.23007 7.38454C5.48751 6.12649 7.36188 5.88113 10.668 5.83328H13.3346" stroke="#F3C50D" stroke-width="1.5" stroke-linecap="round"/>
</svg>
