<svg width="32" height="33" viewBox="0 0 32 33" fill="none" xmlns="http://www.w3.org/2000/svg">
<ellipse cx="20.6667" cy="15.1667" rx="8.66667" ry="2.66667" stroke="#F3C50D" stroke-width="1.5"/>
<path d="M29.3333 21.1667C29.3333 22.6394 25.4531 23.8333 20.6667 23.8333C15.8802 23.8333 12 22.6394 12 21.1667" stroke="#F3C50D" stroke-width="1.5"/>
<path d="M29.3333 15.1667V26.9C29.3333 28.52 25.4531 29.8333 20.6667 29.8333C15.8802 29.8333 12 28.52 12 26.9V15.1667" stroke="#F3C50D" stroke-width="1.5"/>
<ellipse cx="11.3327" cy="5.83332" rx="8.66667" ry="2.66667" stroke="#F3C50D" stroke-width="1.5"/>
<path d="M7.99935 15.1667C5.47693 14.8597 3.15923 14.0661 2.66602 12.5M7.99935 21.8333C5.47693 21.5264 3.15923 20.7327 2.66602 19.1667" stroke="#F3C50D" stroke-width="1.5" stroke-linecap="round"/>
<path d="M7.99935 28.5C5.47693 28.193 3.15923 27.3994 2.66602 25.8333L2.66602 5.83331" stroke="#F3C50D" stroke-width="1.5" stroke-linecap="round"/>
<path d="M20 8.49998V5.83331" stroke="#F3C50D" stroke-width="1.5" stroke-linecap="round"/>
</svg>
