<svg width="41" height="40" viewBox="0 0 41 40" fill="none" xmlns="http://www.w3.org/2000/svg">
<path d="M16.7309 5.99893C15.6645 7.06532 14.6078 7.56041 13.0874 7.56041C11.76 7.56041 9.87136 7.30295 8.83398 8.34905C7.80481 9.38688 8.06112 11.2677 8.06112 12.5867C8.06112 14.1071 7.56599 15.1638 6.49957 16.2303C4.72252 18.0073 3.834 18.8958 3.83398 19.9999C3.83401 21.1041 4.72255 21.9927 6.49961 23.7697C7.69424 24.9643 8.06112 25.7357 8.06112 27.4132C8.06112 28.7406 7.80366 30.6293 8.8498 31.6666C9.88762 32.6958 11.7684 32.4395 13.0874 32.4395C14.7065 32.4395 15.4861 32.7562 16.6416 33.9117C17.6255 34.8956 18.9445 36.6666 20.5007 36.6666C22.0569 36.6666 23.3758 34.8956 24.3597 33.9117C25.5152 32.7562 26.2948 32.4395 27.9139 32.4395C29.2329 32.4395 31.1137 32.6958 32.1515 31.6666C33.1976 30.6293 32.9402 28.7406 32.9402 27.4132C32.9402 25.7357 33.307 24.9643 34.5017 23.7697C36.2788 21.9927 37.1673 21.1041 37.1673 19.9999C37.1673 18.8958 36.2788 18.0073 34.5017 16.2303C33.3071 15.0356 32.9402 14.2643 32.9402 12.5867C32.9402 11.2593 33.1976 9.3707 32.1516 8.33331C31.1138 7.30409 29.2329 7.56041 27.9139 7.56041C26.3931 7.56041 25.3366 7.06509 24.2704 5.99893C22.4933 4.22185 21.6048 3.33331 20.5006 3.33331C19.3965 3.33331 18.508 4.22185 16.7309 5.99893Z" fill="#F3C50D"/>
<path d="M15.5 21.4881L18.5 24.1666L25.5 15.8333" stroke="#0A0122" stroke-width="2" stroke-linecap="round" stroke-linejoin="round"/>
</svg>
