<svg width="41" height="40" viewBox="0 0 41 40" fill="none" xmlns="http://www.w3.org/2000/svg">
<path d="M16.7309 5.99899C15.6645 7.06538 14.6078 7.56047 13.0874 7.56047C11.76 7.56047 9.87136 7.30301 8.83398 8.34912C7.80481 9.38694 8.06112 11.2678 8.06112 12.5868C8.06112 14.1072 7.56599 15.1639 6.49957 16.2303C4.72252 18.0074 3.834 18.8959 3.83398 20C3.83401 21.1041 4.72255 21.9927 6.49961 23.7698C7.69424 24.9644 8.06112 25.7357 8.06112 27.4132C8.06112 28.7407 7.80366 30.6293 8.8498 31.6667C9.88762 32.6958 11.7684 32.4395 13.0874 32.4395C14.7065 32.4395 15.4861 32.7562 16.6416 33.9117C17.6255 34.8957 18.9445 36.6667 20.5007 36.6667C22.0569 36.6667 23.3758 34.8957 24.3597 33.9117C25.5152 32.7562 26.2948 32.4395 27.9139 32.4395C29.2329 32.4395 31.1137 32.6958 32.1515 31.6667C33.1976 30.6293 32.9402 28.7407 32.9402 27.4132C32.9402 25.7358 33.307 24.9643 34.5017 23.7698C36.2788 21.9927 37.1673 21.1041 37.1673 20C37.1673 18.8959 36.2788 18.0074 34.5017 16.2303C33.3071 15.0357 32.9402 14.2643 32.9402 12.5868C32.9402 11.2594 33.1976 9.37076 32.1516 8.33337C31.1138 7.30416 29.2329 7.56047 27.9139 7.56047C26.3931 7.56047 25.3366 7.06515 24.2704 5.99899C22.4933 4.22191 21.6048 3.33337 20.5006 3.33337C19.3965 3.33337 18.508 4.22191 16.7309 5.99899Z" fill="white" fill-opacity="0.2"/>
</svg>
