<svg width="47" height="47" viewBox="0 0 47 47" fill="none" xmlns="http://www.w3.org/2000/svg">
<rect x="1" y="1" width="45" height="45" rx="7.5" stroke="#85FFC4"/>
<path d="M20.5 26.5C20.5 23.6716 20.5 22.2574 21.3787 21.3787C22.2574 20.5 23.6716 20.5 26.5 20.5L27.5 20.5C30.3284 20.5 31.7426 20.5 32.6213 21.3787C33.5 22.2574 33.5 23.6716 33.5 26.5V27.5C33.5 30.3284 33.5 31.7426 32.6213 32.6213C31.7426 33.5 30.3284 33.5 27.5 33.5H26.5C23.6716 33.5 22.2574 33.5 21.3787 32.6213C20.5 31.7426 20.5 30.3284 20.5 27.5L20.5 26.5Z" stroke="#85FFC4" stroke-width="1.5" stroke-linecap="round" stroke-linejoin="round"/>
<path d="M28.4999 20.5C28.4975 17.5429 28.4528 16.0112 27.592 14.9624C27.4258 14.7599 27.2401 14.5742 27.0376 14.408C25.9312 13.5 24.2875 13.5 21 13.5C17.7125 13.5 16.0688 13.5 14.9624 14.408C14.7599 14.5742 14.5742 14.7599 14.408 14.9624C13.5 16.0688 13.5 17.7125 13.5 21C13.5 24.2875 13.5 25.9312 14.408 27.0376C14.5742 27.2401 14.7599 27.4258 14.9624 27.592C16.0112 28.4528 17.5429 28.4975 20.5 28.4999" stroke="#85FFC4" stroke-width="1.5" stroke-linecap="round" stroke-linejoin="round"/>
</svg>
